<svg width="1000" height="345" viewBox="0 0 1000 345" fill="none" xmlns="http://www.w3.org/2000/svg">
<path d="M200.675 109.033C200.675 95.5734 189.722 84.6563 176.224 84.6563H168.403C154.896 84.6563 143.952 95.5648 143.952 109.033V145.048H143.935V157.932C143.935 161.926 140.683 165.173 136.674 165.173H136.605C132.596 165.173 129.344 161.935 129.344 157.941V145.057H129.335V130.498V109.033C129.335 87.5337 146.826 70.106 168.395 70.106H176.215C197.792 70.106 215.275 87.5337 215.275 109.033V120.388H200.666V109.033H200.675Z" fill="white"/>
<path d="M236.482 201.386C249.964 201.386 260.898 190.452 260.898 176.976V169.168C260.898 155.683 249.972 144.757 236.482 144.757H200.408V144.74H187.503C183.502 144.74 180.25 141.493 180.25 137.49V137.422C180.25 133.419 183.494 130.172 187.494 130.172H200.399L214.982 130.164H236.482C258.016 130.164 275.473 147.626 275.473 169.159V176.967C275.473 198.509 258.016 215.963 236.482 215.963H225.108V201.378H236.482V201.386Z" fill="white"/>
<path d="M108.119 130.161H119.493V144.746H108.119C94.6378 144.746 83.7029 155.68 83.7029 169.157V176.965C83.7029 190.45 94.6292 201.376 108.119 201.376H115.639V201.359H157.107C161.108 201.359 164.36 204.605 164.36 208.608C164.36 212.611 161.116 215.857 157.107 215.857H143.996L113.436 215.866V215.952H108.128C86.5936 215.952 69.1373 198.49 69.1373 176.956V169.148C69.1373 147.606 86.5936 130.153 108.128 130.153L108.119 130.161Z" fill="white"/>
<path d="M143.987 237.256C143.987 238.931 144.159 240.606 144.494 242.238C146.826 253.498 156.883 261.675 168.395 261.675H176.207C189.077 261.675 199.78 251.617 200.571 238.776C200.606 238.252 200.623 237.745 200.623 237.264V201.395H200.657V188.537C200.657 184.569 203.712 181.107 207.686 180.987C211.79 180.867 215.154 184.157 215.154 188.236V201.404H215.163V231.922H215.206V237.273C215.206 238.055 215.18 238.871 215.128 239.687C213.864 260.198 196.769 276.269 176.207 276.269H168.395C150.001 276.269 133.947 263.204 130.213 245.21C129.671 242.607 129.395 239.936 129.395 237.273V225.849H143.978V237.273L143.987 237.256Z" fill="white"/>
<path d="M311.478 216.384V213.301H333.047V216.384H324.022V242.006H320.546V216.384H311.478Z" fill="white"/>
<path d="M339.414 229.061V242.006H336.136V213.309H339.414V223.865H339.723C340.222 222.748 340.979 221.855 341.986 221.194C342.993 220.532 344.352 220.206 346.047 220.206C347.509 220.206 348.8 220.498 349.901 221.082C351.011 221.666 351.871 222.559 352.482 223.762C353.102 224.964 353.411 226.485 353.411 228.34V242.014H350.09V228.572C350.09 226.854 349.643 225.523 348.757 224.586C347.871 223.65 346.64 223.178 345.075 223.178C343.982 223.178 343.01 223.41 342.158 223.874C341.306 224.337 340.635 225.007 340.145 225.875C339.646 226.751 339.405 227.816 339.405 229.07L339.414 229.061Z" fill="white"/>
<path d="M371.246 233.219V220.463H374.524V241.997H371.246V238.338H371.014C370.498 239.429 369.715 240.356 368.648 241.129C367.581 241.902 366.239 242.28 364.604 242.263C363.254 242.263 362.058 241.971 361.017 241.387C359.976 240.803 359.158 239.91 358.556 238.699C357.954 237.487 357.661 235.967 357.661 234.138V220.463H360.939V233.949C360.939 235.503 361.387 236.749 362.282 237.685C363.176 238.621 364.312 239.085 365.688 239.068C366.514 239.068 367.349 238.862 368.209 238.441C369.061 238.02 369.784 237.384 370.369 236.517C370.954 235.649 371.246 234.55 371.246 233.21V233.219Z" fill="white"/>
<path d="M387.489 242.47C385.545 242.47 383.841 242.006 382.379 241.087C380.916 240.168 379.772 238.862 378.955 237.196C378.137 235.53 377.733 233.589 377.733 231.381C377.733 229.174 378.137 227.172 378.955 225.497C379.772 223.822 380.916 222.525 382.379 221.598C383.841 220.67 385.553 220.215 387.489 220.215C389.425 220.215 391.154 220.679 392.625 221.598C394.088 222.525 395.232 223.822 396.058 225.497C396.884 227.172 397.297 229.131 397.297 231.381C397.297 233.631 396.884 235.53 396.058 237.196C395.232 238.862 394.088 240.159 392.625 241.087C391.163 242.015 389.451 242.47 387.489 242.47ZM380.237 217.776L385.949 212.691H389.038L394.785 217.776H390.733L387.532 214.812L384.332 217.776H380.245H380.237ZM387.489 239.498C388.978 239.498 390.199 239.12 391.154 238.364C392.109 237.608 392.815 236.612 393.279 235.367C393.744 234.13 393.976 232.798 393.976 231.372C393.976 229.947 393.744 228.572 393.279 227.327C392.815 226.081 392.109 225.076 391.154 224.312C390.199 223.548 388.978 223.17 387.489 223.17C386.001 223.17 384.814 223.556 383.859 224.312C382.904 225.076 382.198 226.081 381.734 227.327C381.269 228.572 381.037 229.921 381.037 231.372C381.037 232.824 381.269 234.13 381.734 235.367C382.198 236.603 382.904 237.608 383.859 238.364C384.814 239.12 386.018 239.498 387.489 239.498ZM393.245 214.348L396.024 209.298H400.11L396.179 214.348H393.245Z" fill="white"/>
<path d="M409.213 242.47C407.208 242.47 405.471 241.989 404.017 241.036C402.554 240.082 401.436 238.768 400.644 237.093C399.853 235.427 399.457 233.52 399.457 231.373C399.457 229.225 399.861 227.241 400.67 225.566C401.479 223.891 402.614 222.577 404.077 221.624C405.539 220.67 407.234 220.198 409.179 220.198C410.693 220.198 412.061 220.473 413.274 221.04C414.487 221.598 415.485 222.388 416.268 223.402C417.042 224.415 417.524 225.6 417.705 226.949H414.384C414.22 226.296 413.911 225.678 413.48 225.102C413.042 224.527 412.465 224.063 411.751 223.702C411.037 223.35 410.194 223.17 409.213 223.17C407.923 223.17 406.804 223.505 405.841 224.175C404.877 224.845 404.12 225.781 403.586 227.001C403.044 228.212 402.778 229.637 402.778 231.269C402.778 232.901 403.044 234.37 403.569 235.616C404.094 236.853 404.843 237.815 405.815 238.493C406.787 239.172 407.923 239.515 409.222 239.515C410.521 239.515 411.631 239.18 412.56 238.502C413.489 237.832 414.1 236.904 414.392 235.736H417.713C417.533 237.007 417.077 238.15 416.337 239.163C415.597 240.177 414.625 240.984 413.42 241.577C412.216 242.178 410.822 242.47 409.222 242.47H409.213Z" fill="white"/>
<path d="M439.428 220.472V223.281H428.278V220.472H439.428ZM431.521 215.344H434.799V235.838C434.799 236.955 435.032 237.771 435.496 238.295C435.961 238.819 436.692 239.077 437.699 239.077C437.914 239.077 438.146 239.068 438.387 239.042C438.628 239.016 438.886 238.982 439.17 238.931L439.867 241.894C439.557 242.006 439.178 242.1 438.74 242.169C438.301 242.237 437.845 242.272 437.397 242.272C435.66 242.272 434.249 241.756 433.165 240.734C432.081 239.704 431.53 238.372 431.53 236.732V215.353L431.521 215.344Z" fill="white"/>
<path d="M446.32 229.061V242.006H443.042V213.309H446.32V223.865H446.629C447.128 222.748 447.885 221.855 448.892 221.194C449.899 220.532 451.258 220.206 452.953 220.206C454.415 220.206 455.706 220.498 456.807 221.082C457.917 221.666 458.777 222.559 459.388 223.762C460.008 224.964 460.317 226.485 460.317 228.34V242.014H456.996V228.572C456.996 226.854 456.549 225.523 455.663 224.586C454.777 223.65 453.546 223.178 451.981 223.178C450.888 223.178 449.916 223.41 449.064 223.874C448.212 224.337 447.541 225.007 447.051 225.875C446.552 226.751 446.311 227.816 446.311 229.07L446.32 229.061Z" fill="white"/>
<path d="M470.9 242.504C469.54 242.504 468.293 242.247 467.174 241.723C466.056 241.199 465.17 240.451 464.516 239.455C463.862 238.467 463.535 237.273 463.535 235.873C463.535 234.636 463.776 233.64 464.266 232.876C464.757 232.111 465.411 231.51 466.228 231.063C467.045 230.617 467.949 230.29 468.929 230.076C469.91 229.861 470.908 229.68 471.906 229.552C473.214 229.388 474.281 229.26 475.098 229.165C475.915 229.079 476.509 228.925 476.896 228.701C477.275 228.486 477.464 228.109 477.464 227.585V227.473C477.464 226.099 477.085 225.034 476.337 224.269C475.588 223.505 474.444 223.127 472.913 223.127C471.381 223.127 470.108 223.47 469.205 224.157C468.301 224.845 467.673 225.583 467.312 226.365L464.146 225.248C464.714 223.934 465.471 222.921 466.409 222.182C467.355 221.452 468.379 220.936 469.497 220.644C470.607 220.352 471.708 220.198 472.784 220.198C473.481 220.198 474.272 220.275 475.176 220.438C476.079 220.601 476.956 220.936 477.808 221.443C478.66 221.95 479.374 222.714 479.933 223.737C480.492 224.759 480.776 226.124 480.776 227.834V242.006H477.455V239.077H477.301C477.086 239.541 476.707 240.039 476.182 240.572C475.657 241.104 474.96 241.559 474.092 241.937C473.223 242.315 472.156 242.504 470.9 242.504ZM471.399 239.541C472.715 239.541 473.816 239.283 474.72 238.768C475.623 238.253 476.303 237.591 476.767 236.775C477.232 235.959 477.464 235.109 477.464 234.224V231.184C477.326 231.347 477.017 231.501 476.552 231.639C476.079 231.776 475.546 231.896 474.935 232C474.324 232.103 473.73 232.188 473.154 232.257C472.577 232.326 472.113 232.386 471.769 232.42C470.908 232.532 470.1 232.721 469.36 232.97C468.611 233.219 468.009 233.589 467.553 234.078C467.097 234.568 466.865 235.238 466.865 236.079C466.865 237.222 467.295 238.089 468.147 238.673C468.998 239.258 470.091 239.55 471.416 239.55L471.399 239.541ZM475.915 217.93L472.982 214.005L470.091 217.93H466.925V217.698L471.476 211.84H474.522L479.038 217.698V217.93H475.915ZM472.861 249.092C472.216 249.092 471.665 248.878 471.201 248.44C470.736 248.001 470.504 247.478 470.504 246.859C470.504 246.241 470.736 245.717 471.201 245.279C471.665 244.841 472.216 244.626 472.861 244.626C473.506 244.626 474.057 244.841 474.522 245.279C474.986 245.717 475.219 246.241 475.219 246.859C475.219 247.478 474.986 248.001 474.522 248.44C474.057 248.878 473.506 249.092 472.861 249.092Z" fill="white"/>
<path d="M494.361 220.472V223.281H483.211V220.472H494.361ZM486.446 215.344H489.724V235.838C489.724 236.955 489.956 237.771 490.42 238.295C490.885 238.819 491.616 239.077 492.623 239.077C492.838 239.077 493.07 239.068 493.311 239.042C493.552 239.016 493.81 238.982 494.094 238.931L494.791 241.894C494.481 242.006 494.103 242.1 493.664 242.169C493.225 242.237 492.769 242.272 492.322 242.272C490.584 242.272 489.173 241.756 488.089 240.734C487.005 239.704 486.454 238.372 486.454 236.732V215.353L486.446 215.344Z" fill="white"/>
<path d="M519.096 228.177V231.261H506.518V228.177H519.096Z" fill="white"/>
<path d="M544.441 242.393C541.894 242.393 539.658 241.792 537.739 240.598C535.812 239.404 534.315 237.703 533.239 235.505C532.164 233.306 531.631 230.694 531.631 227.671C531.631 224.648 532.164 222.019 533.239 219.812C534.315 217.604 535.795 215.904 537.687 214.71C539.58 213.516 541.748 212.915 544.209 212.915C545.723 212.915 547.143 213.138 548.45 213.585C549.758 214.031 550.937 214.675 551.96 215.509C552.993 216.342 553.845 217.329 554.533 218.472C555.221 219.614 555.703 220.877 555.97 222.268H552.382C552.072 221.315 551.668 220.465 551.178 219.717C550.679 218.97 550.085 218.326 549.397 217.793C548.7 217.261 547.925 216.848 547.065 216.574C546.205 216.29 545.25 216.153 544.209 216.153C542.514 216.153 540.965 216.591 539.572 217.475C538.178 218.352 537.059 219.649 536.233 221.366C535.408 223.084 534.986 225.18 534.986 227.671C534.986 230.162 535.407 232.241 536.242 233.95C537.077 235.659 538.212 236.948 539.64 237.832C541.069 238.708 542.669 239.155 544.441 239.155C546.084 239.155 547.538 238.803 548.786 238.099C550.033 237.394 551.014 236.398 551.72 235.101C552.425 233.812 552.778 232.284 552.778 230.523L553.862 230.755H545.215V227.671H556.176V230.755C556.176 233.117 555.677 235.17 554.671 236.905C553.664 238.648 552.279 239.997 550.515 240.95C548.743 241.904 546.721 242.385 544.45 242.385L544.441 242.393Z" fill="white"/>
<path d="M562.827 216.89C562.182 216.89 561.631 216.675 561.166 216.237C560.702 215.799 560.469 215.275 560.469 214.657C560.469 214.038 560.702 213.514 561.166 213.076C561.631 212.638 562.182 212.423 562.827 212.423C563.472 212.423 564.023 212.638 564.487 213.076C564.952 213.514 565.184 214.038 565.184 214.657C565.184 215.275 564.952 215.799 564.487 216.237C564.023 216.675 563.472 216.89 562.827 216.89ZM561.175 242.005V220.472H564.453V242.005H561.175Z" fill="white"/>
<path d="M575.026 242.505C573.667 242.505 572.42 242.247 571.301 241.723C570.183 241.199 569.297 240.452 568.643 239.456C567.989 238.468 567.662 237.274 567.662 235.874C567.662 234.637 567.903 233.641 568.393 232.876C568.884 232.112 569.537 231.511 570.355 231.064C571.172 230.617 572.075 230.291 573.056 230.076C574.037 229.862 575.035 229.681 576.033 229.552C577.341 229.389 578.408 229.26 579.225 229.166C580.042 229.08 580.636 228.925 581.023 228.702C581.402 228.487 581.591 228.109 581.591 227.585V227.474C581.591 226.099 581.212 225.034 580.464 224.27C579.715 223.505 578.571 223.127 577.04 223.127C575.508 223.127 574.235 223.471 573.332 224.158C572.428 224.845 571.8 225.584 571.439 226.366L568.273 225.249C568.841 223.935 569.598 222.921 570.535 222.183C571.482 221.453 572.506 220.937 573.624 220.645C574.734 220.353 575.835 220.198 576.911 220.198C577.607 220.198 578.399 220.276 579.302 220.439C580.206 220.602 581.083 220.937 581.935 221.444C582.787 221.951 583.501 222.715 584.06 223.737C584.619 224.759 584.903 226.125 584.903 227.834V242.007H581.582V239.078H581.427C581.212 239.542 580.834 240.04 580.309 240.572C579.784 241.105 579.087 241.56 578.218 241.938C577.349 242.316 576.282 242.505 575.026 242.505ZM575.525 239.542C576.842 239.542 577.943 239.284 578.846 238.769C579.75 238.253 580.429 237.592 580.894 236.776C581.358 235.96 581.591 235.11 581.591 234.225V231.184C581.453 231.347 581.143 231.502 580.679 231.64C580.206 231.777 579.672 231.897 579.061 232C578.451 232.103 577.857 232.189 577.28 232.258C576.704 232.327 576.239 232.387 575.895 232.421C575.035 232.533 574.226 232.722 573.486 232.971C572.738 233.22 572.136 233.589 571.68 234.079C571.224 234.568 570.991 235.238 570.991 236.08C570.991 237.223 571.422 238.09 572.273 238.674C573.125 239.258 574.218 239.55 575.543 239.55L575.525 239.542ZM575.525 217.776L578.227 212.502H581.969L578.261 217.776H575.525Z" fill="white"/>
<path d="M607.745 220.472V223.281H596.595V220.472H607.745ZM599.839 215.344H603.117V235.838C603.117 236.955 603.349 237.771 603.813 238.295C604.278 238.819 605.009 239.077 606.016 239.077C606.231 239.077 606.463 239.068 606.704 239.042C606.945 239.016 607.203 238.982 607.487 238.931L608.184 241.894C607.874 242.006 607.496 242.1 607.057 242.169C606.618 242.237 606.162 242.272 605.715 242.272C603.977 242.272 602.566 241.756 601.482 240.734C600.398 239.704 599.847 238.372 599.847 236.732V215.353L599.839 215.344Z" fill="white"/>
<path d="M614.636 229.061V242.006H611.358V213.309H614.636V223.865H614.946C615.445 222.748 616.202 221.855 617.209 221.194C618.215 220.532 619.575 220.206 621.27 220.206C622.732 220.206 624.023 220.498 625.124 221.082C626.234 221.666 627.094 222.559 627.705 223.762C628.324 224.964 628.634 226.485 628.634 228.34V242.014H625.313V228.572C625.313 226.854 624.866 225.523 623.98 224.586C623.093 223.65 621.863 223.178 620.297 223.178C619.205 223.178 618.233 223.41 617.381 223.874C616.529 224.337 615.858 225.007 615.368 225.875C614.869 226.751 614.628 227.816 614.628 229.07L614.636 229.061Z" fill="white"/>
<path d="M639.216 242.504C637.857 242.504 636.61 242.247 635.491 241.723C634.373 241.199 633.486 240.451 632.833 239.455C632.179 238.467 631.852 237.273 631.852 235.873C631.852 234.636 632.093 233.64 632.583 232.876C633.074 232.111 633.727 231.51 634.545 231.063C635.362 230.617 636.265 230.29 637.246 230.076C638.227 229.861 639.225 229.68 640.223 229.552C641.531 229.388 642.597 229.26 643.415 229.165C644.232 229.079 644.826 228.925 645.213 228.701C645.591 228.486 645.781 228.109 645.781 227.585V227.473C645.781 226.099 645.402 225.034 644.654 224.269C643.905 223.505 642.761 223.127 641.23 223.127C639.698 223.127 638.425 223.47 637.521 224.157C636.618 224.845 635.99 225.583 635.629 226.365L632.463 225.248C633.03 223.934 633.788 222.921 634.725 222.182C635.672 221.452 636.696 220.936 637.814 220.644C638.924 220.352 640.025 220.198 641.1 220.198C641.797 220.198 642.589 220.275 643.492 220.438C644.396 220.601 645.273 220.936 646.125 221.443C646.977 221.95 647.691 222.714 648.25 223.737C648.809 224.759 649.093 226.124 649.093 227.834V242.006H645.772V239.077H645.617C645.402 239.541 645.024 240.039 644.499 240.572C643.974 241.104 643.277 241.559 642.408 241.937C641.539 242.315 640.472 242.504 639.216 242.504ZM639.715 239.541C641.032 239.541 642.133 239.283 643.036 238.768C643.94 238.253 644.619 237.591 645.084 236.775C645.548 235.959 645.781 235.109 645.781 234.224V231.184C645.643 231.347 645.333 231.501 644.869 231.639C644.396 231.776 643.862 231.896 643.251 232C642.64 232.103 642.047 232.188 641.47 232.257C640.894 232.326 640.429 232.386 640.085 232.42C639.225 232.532 638.416 232.721 637.676 232.97C636.928 233.219 636.326 233.589 635.87 234.078C635.414 234.568 635.181 235.238 635.181 236.079C635.181 237.222 635.612 238.089 636.463 238.673C637.315 239.258 638.408 239.55 639.733 239.55L639.715 239.541ZM644.232 217.93L641.298 214.005L638.408 217.93H635.242V217.698L639.793 211.84H642.838L647.355 217.698V217.93H644.232ZM641.178 249.092C640.533 249.092 639.982 248.878 639.517 248.44C639.053 248.001 638.821 247.478 638.821 246.859C638.821 246.241 639.053 245.717 639.517 245.279C639.982 244.841 640.533 244.626 641.178 244.626C641.823 244.626 642.374 244.841 642.838 245.279C643.303 245.717 643.535 246.241 643.535 246.859C643.535 247.478 643.303 248.001 642.838 248.44C642.374 248.878 641.823 249.092 641.178 249.092Z" fill="white"/>
<path d="M662.678 220.472V223.281H651.528V220.472H662.678ZM654.763 215.344H658.041V235.838C658.041 236.955 658.273 237.771 658.738 238.295C659.202 238.819 659.934 239.077 660.94 239.077C661.155 239.077 661.388 239.068 661.629 239.042C661.869 239.016 662.127 238.982 662.411 238.931L663.108 241.894C662.799 242.006 662.42 242.1 661.981 242.169C661.542 242.237 661.086 242.272 660.639 242.272C658.901 242.272 657.49 241.756 656.406 240.734C655.322 239.704 654.772 238.372 654.772 236.732V215.353L654.763 215.344Z" fill="white"/>
<path d="M687.404 228.177V231.261H674.826V228.177H687.404Z" fill="white"/>
<path d="M710.178 242.503C708.122 242.503 706.341 242.168 704.835 241.516C703.329 240.863 702.151 239.927 701.29 238.741C700.439 237.556 699.948 236.173 699.836 234.61H703.424C703.527 235.692 703.897 236.577 704.534 237.29C705.171 237.994 705.988 238.526 706.977 238.87C707.967 239.214 709.033 239.394 710.178 239.394C711.503 239.394 712.699 239.179 713.757 238.741C714.815 238.303 715.658 237.693 716.278 236.912C716.897 236.13 717.207 235.211 717.207 234.154C717.207 233.201 716.94 232.437 716.398 231.844C715.856 231.251 715.15 230.77 714.282 230.401C713.413 230.032 712.475 229.705 711.451 229.422L707.941 228.417C705.687 227.773 703.914 226.854 702.607 225.651C701.299 224.448 700.645 222.877 700.645 220.944C700.645 219.338 701.075 217.938 701.944 216.735C702.813 215.533 703.992 214.605 705.472 213.935C706.96 213.265 708.612 212.93 710.436 212.93C712.26 212.93 713.937 213.257 715.374 213.918C716.811 214.579 717.955 215.481 718.807 216.615C719.659 217.749 720.106 219.037 720.158 220.48H716.759C716.596 219.072 715.916 217.972 714.72 217.182C713.533 216.4 712.062 216.005 710.315 216.005C709.051 216.005 707.949 216.211 706.994 216.624C706.039 217.036 705.3 217.603 704.775 218.316C704.25 219.037 703.983 219.853 703.983 220.781C703.983 221.794 704.302 222.61 704.93 223.237C705.558 223.864 706.306 224.345 707.175 224.689C708.044 225.033 708.827 225.307 709.541 225.514L712.432 226.321C713.18 226.527 714.006 226.802 714.927 227.146C715.847 227.489 716.734 227.962 717.585 228.554C718.437 229.147 719.142 229.903 719.702 230.813C720.252 231.732 720.528 232.866 720.528 234.215C720.528 235.752 720.123 237.152 719.315 238.406C718.506 239.66 717.327 240.657 715.787 241.395C714.247 242.134 712.363 242.503 710.152 242.503H710.178Z" fill="white"/>
<path d="M737.571 233.22V220.465H740.849V241.998H737.571V238.339H737.339C736.822 239.43 736.039 240.358 734.973 241.131C733.914 241.904 732.564 242.282 730.929 242.265C729.578 242.265 728.382 241.972 727.341 241.388C726.3 240.804 725.483 239.911 724.881 238.7C724.279 237.489 723.986 235.969 723.986 234.139V220.465H727.264V233.95C727.264 235.505 727.711 236.75 728.606 237.686C729.501 238.623 730.637 239.086 732.013 239.069C732.839 239.069 733.674 238.863 734.534 238.442C735.386 238.021 736.108 237.386 736.693 236.518C737.278 235.651 737.571 234.551 737.571 233.211V233.22ZM730.817 217.776L733.519 212.502H737.261L733.553 217.776H730.817ZM738.827 222.303L737.571 220.473C739.137 220.473 740.29 220.027 741.021 219.142C741.752 218.257 742.122 216.866 742.122 214.959H745.211C745.211 217.244 744.643 219.039 743.516 220.345C742.38 221.65 740.823 222.303 738.827 222.303Z" fill="white"/>
<path d="M753.814 242.47C751.81 242.47 750.072 241.989 748.618 241.036C747.155 240.082 746.037 238.768 745.245 237.093C744.454 235.427 744.058 233.52 744.058 231.373C744.058 229.225 744.462 227.241 745.271 225.566C746.08 223.891 747.216 222.577 748.678 221.624C750.141 220.67 751.836 220.198 753.78 220.198C755.294 220.198 756.662 220.473 757.875 221.04C759.088 221.598 760.086 222.388 760.869 223.402C761.643 224.415 762.125 225.6 762.306 226.949H758.985C758.822 226.296 758.512 225.678 758.082 225.102C757.643 224.527 757.066 224.063 756.352 223.702C755.638 223.35 754.795 223.17 753.814 223.17C752.524 223.17 751.405 223.505 750.442 224.175C749.478 224.845 748.721 225.781 748.188 227.001C747.654 228.22 747.379 229.637 747.379 231.269C747.379 232.901 747.646 234.37 748.171 235.616C748.695 236.853 749.444 237.815 750.416 238.493C751.388 239.172 752.524 239.515 753.823 239.515C755.122 239.515 756.232 239.18 757.161 238.502C758.09 237.832 758.701 236.904 758.994 235.736H762.315C762.134 237.007 761.678 238.15 760.938 239.163C760.198 240.177 759.226 240.984 758.021 241.577C756.817 242.178 755.423 242.47 753.823 242.47H753.814Z" fill="white"/>
<path d="M774.694 242.006V213.309H777.972V242.006H774.694ZM777.783 234.146L777.706 230.066H778.402L787.815 220.472H791.901L781.87 230.642H781.56L777.774 234.146H777.783ZM788.348 242.006L779.934 231.372L782.291 229.061L792.598 242.006H788.357H788.348Z" fill="white"/>
<path d="M797.614 229.061V242.006H794.336V213.309H797.614V223.865H797.924C798.423 222.748 799.18 221.855 800.186 221.194C801.193 220.532 802.552 220.206 804.247 220.206C805.71 220.206 807 220.498 808.101 221.082C809.211 221.666 810.072 222.559 810.682 223.762C811.302 224.964 811.612 226.485 811.612 228.34V242.014H808.291V228.572C808.291 226.854 807.843 225.523 806.957 224.586C806.071 223.65 804.841 223.178 803.275 223.178C802.182 223.178 801.21 223.41 800.358 223.874C799.507 224.337 798.835 225.007 798.345 225.875C797.846 226.751 797.605 227.816 797.605 229.07L797.614 229.061Z" fill="white"/>
<path d="M824.586 242.469C822.641 242.469 820.938 242.005 819.475 241.086C818.013 240.158 816.868 238.861 816.051 237.195C815.234 235.529 814.829 233.587 814.829 231.38C814.829 229.172 815.234 227.171 816.051 225.496C816.868 223.821 818.013 222.524 819.475 221.597C820.938 220.669 822.65 220.214 824.586 220.214C826.521 220.214 828.251 220.678 829.722 221.597C831.184 222.524 832.329 223.821 833.155 225.496C833.981 227.171 834.394 229.13 834.394 231.38C834.394 233.63 833.981 235.529 833.155 237.195C832.329 238.861 831.184 240.158 829.722 241.086C828.259 242.014 826.547 242.469 824.586 242.469ZM824.586 239.497C826.074 239.497 827.296 239.119 828.251 238.363C829.206 237.607 829.911 236.611 830.376 235.365C830.84 234.129 831.073 232.797 831.073 231.371C831.073 229.946 830.84 228.571 830.376 227.326C829.911 226.08 829.206 225.075 828.251 224.311C827.296 223.546 826.074 223.169 824.586 223.169C823.097 223.169 821.91 223.555 820.955 224.311C820 225.075 819.295 226.08 818.83 227.326C818.365 228.571 818.133 229.92 818.133 231.371C818.133 232.823 818.365 234.129 818.83 235.365C819.295 236.602 820 237.607 820.955 238.363C821.91 239.119 823.114 239.497 824.586 239.497ZM826.048 217.577H823.312V214.536C824.293 214.485 824.981 214.356 825.386 214.141C825.79 213.926 825.997 213.6 826.014 213.153C825.997 212.655 825.695 212.286 825.11 212.045C824.517 211.805 823.803 211.685 822.968 211.685L823.08 209.563C825.024 209.563 826.487 209.898 827.476 210.568C828.466 211.238 828.965 212.131 828.982 213.265C828.973 214.218 828.664 214.906 828.053 215.344C827.451 215.782 826.78 216.065 826.048 216.194V217.577Z" fill="white"/>
<path d="M846.619 242.469C844.545 242.469 842.756 242.005 841.241 241.086C839.727 240.159 838.566 238.87 837.757 237.204C836.948 235.538 836.544 233.614 836.544 231.415C836.544 229.216 836.94 227.257 837.74 225.583C838.54 223.908 839.658 222.585 841.104 221.631C842.549 220.678 844.244 220.206 846.188 220.206C847.307 220.206 848.417 220.395 849.526 220.764C850.636 221.133 851.643 221.743 852.546 222.576C853.45 223.409 854.172 224.517 854.714 225.892C855.256 227.266 855.523 228.958 855.523 230.959V232.385H838.893V229.534H853.734L852.211 230.616C852.211 229.181 851.987 227.902 851.54 226.785C851.092 225.668 850.421 224.792 849.526 224.148C848.632 223.504 847.522 223.186 846.197 223.186C844.872 223.186 843.736 223.512 842.79 224.157C841.844 224.809 841.121 225.651 840.622 226.691C840.123 227.73 839.873 228.846 839.873 230.04V231.93C839.873 233.562 840.157 234.945 840.725 236.07C841.293 237.204 842.085 238.054 843.1 238.638C844.115 239.222 845.294 239.514 846.627 239.514C847.487 239.514 848.27 239.386 848.984 239.136C849.69 238.887 850.301 238.509 850.817 238.003C851.333 237.496 851.72 236.869 851.996 236.122L855.196 237.049C854.861 238.132 854.301 239.076 853.51 239.892C852.718 240.708 851.738 241.344 850.567 241.799C849.397 242.254 848.081 242.486 846.636 242.486L846.619 242.469Z" fill="white"/>
<path d="M877.255 220.472V223.281H866.105V220.472H877.255ZM869.349 215.344H872.627V235.838C872.627 236.955 872.859 237.771 873.323 238.295C873.788 238.819 874.519 239.077 875.526 239.077C875.741 239.077 875.973 239.068 876.214 239.042C876.455 239.016 876.713 238.982 876.997 238.931L877.694 241.894C877.384 242.006 877.006 242.1 876.567 242.169C876.128 242.237 875.672 242.272 875.225 242.272C873.487 242.272 872.076 241.756 870.992 240.734C869.908 239.704 869.357 238.372 869.357 236.732V215.353L869.349 215.344Z" fill="white"/>
<path d="M884.147 229.061V242.006H880.869V213.309H884.147V223.865H884.457C884.956 222.748 885.713 221.855 886.719 221.194C887.726 220.532 889.085 220.206 890.78 220.206C892.243 220.206 893.533 220.498 894.635 221.082C895.744 221.666 896.605 222.559 897.216 223.762C897.835 224.964 898.145 226.485 898.145 228.34V242.014H894.824V228.572C894.824 226.854 894.377 225.523 893.49 224.586C892.604 223.65 891.374 223.178 889.808 223.178C888.715 223.178 887.743 223.41 886.892 223.874C886.04 224.337 885.369 225.007 884.878 225.875C884.379 226.751 884.138 227.816 884.138 229.07L884.147 229.061Z" fill="white"/>
<path d="M908.727 242.504C907.367 242.504 906.12 242.247 905.001 241.723C903.883 241.199 902.997 240.451 902.343 239.455C901.689 238.467 901.362 237.273 901.362 235.873C901.362 234.636 901.603 233.64 902.093 232.876C902.584 232.111 903.238 231.51 904.055 231.063C904.872 230.617 905.776 230.29 906.756 230.076C907.737 229.861 908.735 229.68 909.733 229.552C911.041 229.388 912.108 229.26 912.925 229.165C913.742 229.079 914.336 228.925 914.723 228.701C915.102 228.486 915.291 228.109 915.291 227.585V227.473C915.291 226.099 914.912 225.034 914.164 224.269C913.415 223.505 912.271 223.127 910.74 223.127C909.208 223.127 907.935 223.47 907.032 224.157C906.128 224.845 905.5 225.583 905.139 226.365L901.973 225.248C902.541 223.934 903.298 222.921 904.236 222.182C905.182 221.452 906.206 220.936 907.324 220.644C908.434 220.352 909.535 220.198 910.611 220.198C911.308 220.198 912.099 220.275 913.002 220.438C913.906 220.601 914.783 220.936 915.635 221.443C916.487 221.95 917.201 222.714 917.76 223.737C918.319 224.759 918.603 226.124 918.603 227.834V242.006H915.282V239.077H915.128C914.912 239.541 914.534 240.039 914.009 240.572C913.484 241.104 912.787 241.559 911.918 241.937C911.049 242.315 909.983 242.504 908.727 242.504ZM909.225 239.541C910.542 239.541 911.643 239.283 912.546 238.768C913.45 238.253 914.13 237.591 914.594 236.775C915.059 235.959 915.291 235.109 915.291 234.224V231.184C915.153 231.347 914.844 231.501 914.379 231.639C913.906 231.776 913.372 231.896 912.762 232C912.151 232.103 911.557 232.188 910.981 232.257C910.404 232.326 909.94 232.386 909.595 232.42C908.735 232.532 907.926 232.721 907.186 232.97C906.438 233.219 905.836 233.589 905.38 234.078C904.924 234.568 904.692 235.238 904.692 236.079C904.692 237.222 905.122 238.089 905.973 238.673C906.825 239.258 907.918 239.55 909.243 239.55L909.225 239.541ZM913.742 217.93L910.809 214.005L907.918 217.93H904.752V217.698L909.303 211.84H912.349L916.865 217.698V217.93H913.742ZM910.688 249.092C910.043 249.092 909.492 248.878 909.028 248.44C908.563 248.001 908.331 247.478 908.331 246.859C908.331 246.241 908.563 245.717 909.028 245.279C909.492 244.841 910.043 244.626 910.688 244.626C911.333 244.626 911.884 244.841 912.349 245.279C912.813 245.717 913.045 246.241 913.045 246.859C913.045 247.478 912.813 248.001 912.349 248.44C911.884 248.878 911.333 249.092 910.688 249.092Z" fill="white"/>
<path d="M932.188 220.472V223.281H921.038V220.472H932.188ZM924.273 215.344H927.551V235.838C927.551 236.955 927.783 237.771 928.248 238.295C928.713 238.819 929.444 239.077 930.45 239.077C930.665 239.077 930.898 239.068 931.139 239.042C931.38 239.016 931.638 238.982 931.922 238.931L932.618 241.894C932.309 242.006 931.93 242.1 931.491 242.169C931.053 242.237 930.597 242.272 930.149 242.272C928.411 242.272 927 241.756 925.916 240.734C924.832 239.704 924.282 238.372 924.282 236.732V215.353L924.273 215.344Z" fill="white"/>
<path d="M327.214 113.921V107.883C327.214 106.654 328.212 105.667 329.433 105.667H380.159C381.389 105.667 382.379 106.663 382.379 107.883V113.921C382.379 115.149 381.381 116.137 380.159 116.137H363.245C362.014 116.137 361.025 117.133 361.025 118.353V172.517C361.025 173.746 360.027 174.733 358.805 174.733H350.856C349.626 174.733 348.636 173.737 348.636 172.517V118.353C348.636 117.125 347.638 116.137 346.416 116.137H329.451C328.22 116.137 327.231 115.141 327.231 113.921H327.214Z" fill="white"/>
<path d="M389.391 172.561V107.832C389.391 106.629 390.363 105.659 391.567 105.659H399.741C400.945 105.659 401.917 106.629 401.917 107.832V132.732C401.917 133.935 402.889 134.905 404.094 134.905H431.78C432.984 134.905 433.956 133.935 433.956 132.732V107.832C433.956 106.629 434.928 105.659 436.133 105.659H444.306C445.511 105.659 446.483 106.629 446.483 107.832V172.561C446.483 173.764 445.511 174.734 444.306 174.734H436.133C434.928 174.734 433.956 173.764 433.956 172.561V147.618C433.956 146.415 432.984 145.445 431.78 145.445H404.094C402.889 145.445 401.917 146.415 401.917 147.618V172.561C401.917 173.764 400.945 174.734 399.741 174.734H391.567C390.363 174.734 389.391 173.764 389.391 172.561Z" fill="white"/>
<path d="M502.388 105.659H510.501C511.705 105.659 512.686 106.638 512.686 107.84V150.77C512.686 155.717 511.524 160.064 509.201 163.817C506.879 167.571 503.609 170.508 499.402 172.63C495.195 174.743 490.265 175.808 484.63 175.808C478.995 175.808 474.074 174.751 469.858 172.63C465.651 170.517 462.373 167.579 460.033 163.817C457.693 160.064 456.523 155.709 456.523 150.77V107.84C456.523 106.638 457.504 105.659 458.708 105.659H466.873C468.077 105.659 469.058 106.638 469.058 107.84V149.748C469.058 152.651 469.695 155.219 470.959 157.444C472.233 159.669 474.031 161.421 476.371 162.709C478.711 163.989 481.456 164.633 484.613 164.633C487.77 164.633 490.515 163.989 492.829 162.709C495.152 161.429 496.95 159.669 498.241 157.444C499.523 155.219 500.168 152.651 500.168 149.748V107.84C500.168 106.638 501.149 105.659 502.353 105.659H502.388Z" fill="white"/>
<path d="M622.612 175.668C616.546 175.668 611.118 174.26 606.334 171.451C601.551 168.642 597.791 164.588 595.047 159.306C592.311 154.023 590.934 147.667 590.934 140.246C590.934 132.825 592.319 126.426 595.09 121.117C597.86 115.818 601.637 111.764 606.42 108.946C611.204 106.138 616.598 104.729 622.603 104.729C626.415 104.729 629.976 105.27 633.306 106.352C636.635 107.435 639.595 109.015 642.202 111.102C644.8 113.19 646.934 115.741 648.586 118.755C649.842 121.049 650.779 123.583 651.382 126.348C651.683 127.723 650.616 129.028 649.205 129.028H641.023C640.017 129.028 639.13 128.358 638.881 127.379C638.511 125.945 637.96 124.639 637.255 123.462C636.283 121.856 635.07 120.49 633.633 119.357C632.196 118.231 630.561 117.381 628.737 116.806C626.914 116.23 624.943 115.947 622.836 115.947C619.059 115.947 615.712 116.883 612.804 118.755C609.896 120.628 607.616 123.376 605.981 127.01C604.338 130.643 603.521 135.058 603.521 140.246C603.521 145.434 604.347 149.926 606.007 153.525C607.659 157.124 609.939 159.847 612.83 161.685C615.721 163.523 619.041 164.442 622.793 164.442C624.866 164.442 626.802 164.176 628.6 163.635C630.398 163.094 632.033 162.278 633.495 161.178C634.966 160.079 636.188 158.756 637.16 157.193C637.874 156.05 638.434 154.779 638.846 153.379C639.122 152.434 639.991 151.799 640.972 151.799H649.171C650.607 151.799 651.674 153.147 651.33 154.539C650.771 156.832 649.936 159.014 648.809 161.092C647.243 163.987 645.204 166.521 642.675 168.694C640.154 170.876 637.203 172.585 633.831 173.813C630.458 175.05 626.707 175.668 622.595 175.668H622.612Z" fill="white"/>
<path d="M676.486 113.956V107.84C676.486 106.638 677.467 105.659 678.672 105.659H729.475C730.679 105.659 731.66 106.638 731.66 107.84V113.956C731.66 115.159 730.679 116.138 729.475 116.138H712.483C711.279 116.138 710.298 117.117 710.298 118.319V172.561C710.298 173.764 709.317 174.743 708.112 174.743H700.085C698.881 174.743 697.9 173.764 697.9 172.561V118.319C697.9 117.117 696.919 116.138 695.715 116.138H678.672C677.467 116.138 676.486 115.159 676.486 113.956Z" fill="white"/>
<path d="M738.672 172.56V107.848C738.672 106.646 739.653 105.667 740.857 105.667H749.022C750.226 105.667 751.207 106.646 751.207 107.848V132.74C751.207 133.943 752.188 134.922 753.392 134.922H781.061C782.265 134.922 783.246 133.943 783.246 132.74V107.848C783.246 106.646 784.227 105.667 785.431 105.667H793.596C794.8 105.667 795.781 106.646 795.781 107.848V172.56C795.781 173.763 794.8 174.742 793.596 174.742H785.431C784.227 174.742 783.246 173.763 783.246 172.56V147.625C783.246 146.423 782.265 145.444 781.061 145.444H753.392C752.188 145.444 751.207 146.423 751.207 147.625V172.56C751.207 173.763 750.226 174.742 749.022 174.742H740.857C739.653 174.742 738.672 173.763 738.672 172.56Z" fill="white"/>
<path d="M814.39 174.742H801.795C801.528 174.742 801.339 174.476 801.433 174.227L823.355 112.229C825.867 104.55 834.419 105.59 840.82 105.658C841.207 106.019 866.105 174.373 864.927 174.742H852.374C851.256 174.622 834.453 119.968 833.335 119.848C832.216 119.968 815.509 174.622 814.39 174.742ZM815.517 147.669C815.904 148.038 851.669 146.947 851.583 148.055V157.297C851.66 158.405 815.904 157.315 815.517 157.684C815.302 157.684 815.13 157.512 815.13 157.297C815.337 157.083 814.657 147.308 815.517 147.669Z" fill="white"/>
<path d="M839.057 98.0558C831.253 89.0628 835.495 88.9597 827.734 98.0128C826.16 100.615 818.555 99.1896 816.12 99.5332C814.322 99.5847 826.401 86.924 826.134 87.216C827.734 85.481 829.937 84.4159 832.303 84.4159H838.05C838.386 84.33 850.551 98.7601 850.792 98.8718C850.998 99.0779 850.955 99.5246 850.602 99.5332H842.128C840.932 99.5332 839.796 98.992 839.057 98.0558Z" fill="white"/>
<path d="M833.403 196.069C825.05 195.845 825.041 184.378 833.403 184.146C841.826 184.344 841.809 195.871 833.403 196.069Z" fill="white"/>
<path d="M859.687 113.956V107.84C859.687 106.638 860.668 105.659 861.872 105.659H912.667C913.871 105.659 914.852 106.638 914.852 107.84V113.956C914.852 115.159 913.871 116.138 912.667 116.138H895.675C894.471 116.138 893.49 117.117 893.49 118.319V172.561C893.49 173.764 892.509 174.743 891.305 174.743H883.278C882.073 174.743 881.092 173.764 881.092 172.561V118.319C881.092 117.117 880.112 116.138 878.907 116.138H861.872C860.668 116.138 859.687 115.159 859.687 113.956Z" fill="white"/>
<path d="M553.216 175.807C547.177 175.807 541.757 174.398 536.939 171.589C532.121 168.781 528.335 164.726 525.565 159.444C522.795 154.161 521.41 147.805 521.41 140.384C521.41 132.963 522.795 126.564 525.565 121.256C528.335 115.956 532.13 111.902 536.939 109.085C541.757 106.276 547.177 104.867 553.216 104.867C559.256 104.867 564.702 106.276 569.468 109.085C574.235 111.902 578.012 115.956 580.799 121.256C583.587 126.555 584.98 132.929 584.98 140.384C584.98 147.84 583.587 154.153 580.799 159.444C578.012 164.726 574.235 168.781 569.468 171.589C564.702 174.407 559.282 175.807 553.216 175.807ZM553.216 164.589C556.959 164.589 560.271 163.661 563.153 161.806C566.036 159.951 568.29 157.228 569.933 153.62C571.576 150.021 572.393 145.606 572.393 140.384C572.393 135.162 571.576 130.695 569.933 127.079C568.29 123.463 566.036 120.723 563.153 118.876C560.271 117.021 556.959 116.093 553.216 116.093C549.474 116.093 546.153 117.021 543.254 118.876C540.354 120.732 538.092 123.463 536.448 127.079C534.805 130.695 533.988 135.127 533.988 140.384C533.988 145.641 534.805 150.021 536.448 153.62C538.092 157.219 540.354 159.951 543.254 161.806C546.144 163.661 549.465 164.589 553.216 164.589ZM538.771 97.3601L548.932 89.1487C549.181 88.9426 549.5 88.8309 549.818 88.8309H556.434C556.752 88.8309 557.071 88.9426 557.32 89.1401L567.584 97.3515C568.625 98.1847 568.032 99.8596 566.698 99.8596H561.063C560.727 99.8596 560.409 99.7394 560.151 99.5246L554.111 94.4483C553.586 94.0103 552.821 94.0103 552.296 94.4483L546.213 99.5246C545.955 99.7394 545.637 99.851 545.31 99.851H539.64C538.307 99.851 537.713 98.1847 538.754 97.3429L538.771 97.3601ZM565.734 88.4616L570.079 78.6869C570.251 78.3004 570.621 78.0513 571.026 78.0513H578.123C578.966 78.0513 579.457 79.0476 578.984 79.7777L572.669 89.5524C572.471 89.853 572.153 90.0334 571.808 90.0334H566.681C565.915 90.0334 565.408 89.1917 565.734 88.453V88.4616Z" fill="white"/>
</svg>
